HIERARCHY
ROOT Hips
{
 OFFSET 0.000000 0.000000 0.000000
 CHANNELS 6 Xposition Yposition Zposition Yrotation Xrotation Zrotation
 JOINT Chest
 {
  OFFSET 0.000000 9.857222 0.000240
  CHANNELS 3 Yrotation Xrotation Zrotation
  JOINT Chest2
  {
   OFFSET 0.000000 10.876940 -0.000436
   CHANNELS 3 Yrotation Xrotation Zrotation
   JOINT Chest3
   {
    OFFSET 0.000000 9.827798 0.000000
    CHANNELS 3 Yrotation Xrotation Zrotation
    JOINT Chest4
    {
     OFFSET 0.000000 9.827798 0.000000
     CHANNELS 3 Yrotation Xrotation Zrotation
     JOINT Neck
     {
      OFFSET 0.000000 13.831992 0.000000
      CHANNELS 3 Yrotation Xrotation Zrotation
      JOINT Head
      {
       OFFSET 0.000000 9.147643 -0.001036
       CHANNELS 3 Yrotation Xrotation Zrotation
       End Site
       {
        OFFSET 0.000000 17.515799 -0.000541
       }
      }
     }
     JOINT RightCollar
     {
      OFFSET -3.001579 7.717577 0.000000
      CHANNELS 3 Yrotation Xrotation Zrotation
      JOINT RightShoulder
      {
       OFFSET -14.002642 0.000000 0.000000
       CHANNELS 3 Yrotation Xrotation Zrotation
       JOINT RightElbow
       {
        OFFSET -30.053852 0.000000 0.000000
        CHANNELS 3 Yrotation Xrotation Zrotation
        JOINT RightWrist
        {
         OFFSET -24.564923 0.000000 -0.000000
         CHANNELS 3 Yrotation Xrotation Zrotation
         End Site
         {
          OFFSET -18.334355 0.000000 0.000000
         }
        }
       }
      }
     }
     JOINT LeftCollar
     {
      OFFSET 3.001579 7.717577 0.000000
      CHANNELS 3 Yrotation Xrotation Zrotation
      JOINT LeftShoulder
      {
       OFFSET 14.002642 0.000000 0.000000
       CHANNELS 3 Yrotation Xrotation Zrotation
       JOINT LeftElbow
       {
        OFFSET 30.053852 0.000000 0.000000
        CHANNELS 3 Yrotation Xrotation Zrotation
        JOINT LeftWrist
        {
         OFFSET 24.564923 0.000000 -0.000000
         CHANNELS 3 Yrotation Xrotation Zrotation
         End Site
         {
          OFFSET 18.334355 0.000000 0.000000
         }
        }
       }
      }
     }
    }
   }
  }
 }
 JOINT RightHip
 {
  OFFSET -8.003235 -0.001175 -0.000120
  CHANNELS 3 Yrotation Xrotation Zrotation
  JOINT RightKnee
  {
   OFFSET 0.000000 -41.759727 0.000113
   CHANNELS 3 Yrotation Xrotation Zrotation
   JOINT RightAnkle
   {
    OFFSET 0.000000 -40.728748 0.000159
    CHANNELS 3 Yrotation Xrotation Zrotation
    JOINT RightToe
    {
     OFFSET 0.000000 -6.515296 14.732841
     CHANNELS 3 Yrotation Xrotation Zrotation
     End Site
     {
      OFFSET 0.000000 -1.502839 6.412115
     }
    }
   }
  }
 }
 JOINT LeftHip
 {
  OFFSET 8.003235 -0.001175 -0.000120
  CHANNELS 3 Yrotation Xrotation Zrotation
  JOINT LeftKnee
  {
   OFFSET 0.000000 -41.759727 0.000113
   CHANNELS 3 Yrotation Xrotation Zrotation
   JOINT LeftAnkle
   {
    OFFSET 0.000000 -40.728748 0.000159
    CHANNELS 3 Yrotation Xrotation Zrotation
    JOINT LeftToe
    {
     OFFSET 0.000000 -6.515296 14.732841
     CHANNELS 3 Yrotation Xrotation Zrotation
     End Site
     {
      OFFSET 0.000000 -1.502839 6.412115
     }
    }
   }
  }
 }
}
MOTION
Frames: 7
Frame Time: 0.016667
0.000000 88.822259 0.000000 0.000000 -5.826342 0.000000 0.000000 11.116423 0.000000 0.000000 -5.290081 0.000000 0.000000 0.000000 0.000000 0.000000 0.000000 0.000000 0.000000 12.665069 0.000000 0.000000 0.575450 0.000000 0.000000 0.000000 0.000000 0.000000 0.000000 0.000000 2.337306 0.000000 0.000000 -2.337306 0.000000 0.000000 0.000000 0.000000 0.000000 0.000000 0.000000 0.000000 -2.337306 0.000000 0.000000 2.337306 0.000000 0.000000 0.000000 8.578828 0.000000 0.000000 1.905768 0.000000 0.000000 -4.658254 0.000000 0.000000 0.000000 0.000000 0.000000 8.578828 0.000000 0.000000 1.905768 0.000000 0.000000 -4.658254 0.000000 0.000000 0.000000 0.000000
11.377255 89.988740 12.419220 -23.131037 -22.659005 1.686736 -4.254311 7.835105 -0.374925 -1.322547 3.520274 0.206607 -1.322547 3.520274 0.206607 -0.992790 2.639773 0.162534 -10.989025 23.475828 1.193801 -20.067050 8.243594 4.912964 9.363708 19.723296 -0.742043 99.113598 21.641828 3.001926 -3.852760 21.497222 -8.090700 -0.796848 14.166709 -3.227381 -26.426777 24.028981 -9.867395 -69.169960 -6.778422 13.363312 -8.058802 37.737923 4.966820 3.418571 9.516348 5.577957 -5.075393 22.148765 -11.307401 -6.937307 4.543607 3.783088 1.414175 -5.235353 2.423517 -1.631841 0.807835 -0.763892 -3.889180 15.288580 7.258819 13.930398 15.746404 3.131869 -9.812782 -6.183041 -9.069740 1.634606 0.215175 0.732446
11.359018 89.996698 12.428287 -23.105063 -22.634160 1.738196 -4.279678 7.816734 -0.371724 -1.325096 3.509262 0.221700 -1.325096 3.509262 0.221700 -0.994786 2.631481 0.173841 -10.993575 23.499682 1.161754 -20.065293 8.282579 4.853392 9.399093 19.909864 -0.780367 99.918807 22.671528 3.344350 -3.167443 19.877115 -9.015455 -0.751496 14.070262 -3.175868 -26.539235 24.154050 -9.923611 -69.250517 -6.585536 13.195876 -9.708215 36.224619 5.398001 3.292409 9.450003 5.364046 -5.144873 22.125735 -11.360493 -6.902567 4.541189 3.782123 1.402306 -5.231833 2.400558 -1.625531 0.801320 -0.750926 -4.097957 15.311630 7.146364 13.980225 15.706245 3.106125 -9.716063 -6.181651 -9.078383 1.622252 0.227276 0.731215
11.338175 90.009403 12.440187 -23.091835 -22.626961 1.766373 -4.277622 7.822062 -0.344818 -1.323441 3.507498 0.235449 -1.323441 3.507498 0.235449 -0.993624 2.630129 0.184136 -10.995096 23.512486 1.143050 -20.062322 8.303128 4.818523 9.393925 20.055509 -0.808683 100.761640 23.589298 3.876953 -2.898114 19.007016 -9.959544 -0.787860 13.839843 -3.114070 -26.625883 24.198795 -9.937705 -69.206956 -6.162962 12.938190 -11.306302 34.731035 6.088546 3.271637 9.486745 5.169490 -5.226195 22.137624 -11.407845 -6.867326 4.520831 3.771268 1.360571 -5.195365 2.382529 -1.576622 0.765370 -0.719303 -4.319803 15.350357 7.044509 14.052282 15.660566 3.106575 -9.475212 -6.137160 -9.120219 1.600113 0.226360 0.725829
11.339238 90.019755 12.455279 -23.017746 -22.599393 1.813307 -4.309232 7.815001 -0.368990 -1.307475 3.518433 0.240834 -1.307475 3.518433 0.240834 -0.981686 2.638324 0.188105 -11.000547 23.508893 1.155843 -20.075620 8.299429 4.843137 9.363216 20.109061 -0.768592 101.522715 24.023234 4.298027 -2.807979 18.727779 -10.748535 -1.633206 14.284672 -2.915903 -26.714301 24.235552 -9.879545 -68.974818 -5.435210 12.747519 -12.933459 33.377818 6.900740 4.776679 10.949293 5.445338 -5.348510 22.120480 -11.489571 -6.888343 4.508055 3.759868 1.352464 -5.183031 2.372141 -1.550360 0.756468 -0.698924 -4.619598 15.368829 6.890691 14.219717 15.599944 3.138171 -9.470540 -6.133395 -9.171246 1.635330 0.243852 0.744287
11.330734 90.030056 12.468526 -22.995089 -22.606008 1.848257 -4.326459 7.845782 -0.353150 -1.310167 3.534485 0.247858 -1.310167 3.534485 0.247858 -0.983748 2.650348 0.193421 -10.982124 23.492012 1.166725 -20.046560 8.267819 4.860687 9.466536 20.130552 -0.715908 102.064760 24.348063 4.581961 -4.456065 19.714549 -11.009055 -1.880885 10.979056 2.691988 -26.763208 24.273169 -9.885744 -68.454406 -4.389115 12.767782 -11.669919 32.870888 7.753509 6.377033 9.131690 0.533769 -5.399006 22.142795 -11.541277 -6.922543 4.502672 3.748450 1.342946 -5.167184 2.367297 -1.522289 0.738512 -0.679776 -4.840277 15.420608 6.770032 14.363137 15.544420 3.161987 -9.325067 -6.098344 -9.219762 1.650695 0.250424 0.754277
11.337990 90.039656 12.486027 -22.990674 -22.626776 1.902254 -4.325457 7.844854 -0.375503 -1.307343 3.533458 0.242115 -1.307343 3.533458 0.242115 -0.981597 2.649591 0.189097 -10.969770 23.516558 1.199614 -20.030759 8.317078 4.912798 9.502395 20.244663 -0.639721 102.362713 24.104848 4.485773 -4.334443 19.114054 -10.372860 -2.628375 9.933942 3.610526 -26.810023 24.379944 -9.918431 -68.275503 -4.343168 12.817800 -11.116822 32.170740 10.014436 7.507763 9.597984 -2.695247 -5.353584 22.176791 -11.576407 -6.975121 4.515820 3.736748 1.262904 -5.168874 2.361754 -1.487117 0.733292 -0.657239 -5.033323 15.483998 6.640986 14.456219 15.490476 3.159376 -9.174308 -6.065305 -9.227625 1.619534 0.257455 0.742286
